<svg xmlns="http://www.w3.org/2000/svg" height="40" viewBox="0 -960 960 960" width="40"><path d="M434.667-218.333 286.333-365l55.333-56 93.001 91.667L614.334-509l55.333 56.667-235 234ZM196.666-52q-43.7 0-74.183-30.483Q92-112.966 92-156.666v-580.002q0-43.974 30.483-74.653Q152.966-842 196.666-842h46.667v-66.667h89V-842h295.334v-66.667h89V-842h46.667q43.975 0 74.654 30.679 30.679 30.679 30.679 74.653v580.002q0 43.7-30.679 74.183Q807.309-52 763.334-52H196.666Zm0-104.666h566.668v-410.001H196.666v410.001Zm0-476.667h566.668v-103.335H196.666v103.335Zm0 0v-103.335 103.335Z"/></svg>