<svg xmlns="http://www.w3.org/2000/svg" height="40" viewBox="0 -960 960 960" width="40"><path d="M427.667-438.667v-432.666h104.666v432.666H427.667Zm51.878 348q-79.878 0-150.338-30.407-70.459-30.408-123.499-83.167Q152.667-257 122.333-327.557 92-398.114 92-478.483q0-85.927 34.818-161.187 34.817-75.261 98.516-129.997l75.332 74.333q-48.509 40.465-76.255 96.382-27.745 55.917-27.745 120.148 0 117.833 82.706 200.652 82.707 82.819 200.519 82.819 118.347 0 200.895-82.738 82.548-82.738 82.548-200.61 0-65.057-27.5-121.521-27.5-56.465-77.5-98.465L734.333-774q64.667 55.667 99.5 132.707 34.834 77.041 34.834 163.232 0 79.728-30.6 150.506-30.6 70.779-83.42 123.365-52.819 52.586-123.482 83.055-70.663 30.468-151.62 30.468Z"/></svg>